# xmcd
#
# Track frame offsets:
#  150
#  7921
#  83830
#  95761
#  109640
#  119797
#  128996
#  133970
#  145009
#  153217
#  160833
#  166063
#  181208
#  189039
#  191790
#
# Disc length: 2851 seconds
#
# Revision: 0
# Processed by: cddbd v1.5PL3 Copyright (c) Steve Scherf et al.
# Submitted via: AltoMP3_Maker 3.0
#
DISCID=c10b210f
DTITLE=Ed Shepp - Superpowerpusssy
DYEAR=1900
DGENRE=
TTITLE0=superpowerpusssy
TTITLE1=aguilleratry
TTITLE2=the quak
TTITLE3=i'm not cool enough to listen to the wht str
TTITLE4=haircut
TTITLE5=minimox
TTITLE6=ode #453.11
TTITLE7=angels we have heard on high
TTITLE8=dreamjournal
TTITLE9=pat
TTITLE10=yaz i am
TTITLE11=february 3 etdue
TTITLE12=xix
TTITLE13=note
TTITLE14=ed shepp is love
EXTD=
EXTT0=
EXTT1=
EXTT2=
EXTT3=
EXTT4=
EXTT5=
EXTT6=
EXTT7=
EXTT8=
EXTT9=
EXTT10=
EXTT11=
EXTT12=
EXTT13=
EXTT14=
PLAYORDER=
